<svg xmlns="http://www.w3.org/2000/svg" viewBox="0 0 275 48">
  <g fill="none" fill-rule="evenodd">
    <path d="M145.32 0h6.24c.6 0 .96.36.96.96v46.08c0 .6-.36.96-.96.96h-6.24c-.66 0-.96-.36-.96-.96V.96c0-.6.3-.96.96-.96Zm37.26 8.64v6.48c0 .6-.36.96-.96.96h-6c-.66 0-.96-.36-.96-.96v-4.8c0-1.56-.84-2.4-2.4-2.4h-3.12c-1.62 0-2.4.84-2.4 2.4v27.36c0 1.62.84 2.4 2.4 2.4h3.12c1.56 0 2.4-.78 2.4-2.4v-4.8c0-.6.3-.96.96-.96h6c.6 0 .96.36.96.96v6.48c0 5.64-3.06 8.64-8.64 8.64h-6.72c-5.64 0-8.7-3-8.7-8.64V8.64c0-5.64 3.06-8.64 8.7-8.64h6.72c5.58 0 8.64 3 8.64 8.64Zm6 30.72V8.64c0-5.64 3-8.64 8.64-8.64h6.72c5.64 0 8.64 3 8.64 8.64v30.72c0 5.64-3 8.64-8.64 8.64h-6.72c-5.64 0-8.64-3-8.64-8.64Zm10.38.9h3.48c1.56 0 2.4-.78 2.4-2.4V10.14c0-1.56-.84-2.4-2.4-2.4h-3.48c-1.56 0-2.4.84-2.4 2.4v27.72c0 1.62.84 2.4 2.4 2.4ZM237 0h6.24c.6 0 .96.36.96.96v46.08c0 .6-.36.96-.96.96h-5.94c-.54 0-.9-.24-1.08-.78l-9.18-25.62h-.3v25.44c0 .6-.3.96-.96.96h-6.24c-.6 0-.96-.36-.96-.96V.96c0-.6.36-.96.96-.96h5.94c.54 0 .9.24 1.08.78l9.12 25.5h.36V.96c0-.6.3-.96.96-.96Zm21.84 0h6.72c5.64 0 8.64 3 8.64 8.64V15c0 .6-.3.96-.96.96H267c-.6 0-.96-.36-.96-.96v-4.68c0-1.56-.78-2.4-2.4-2.4h-2.88c-1.5 0-2.4.84-2.4 2.4v8.28l14.28 4.68c1.02.42 1.56 1.08 1.56 2.22v13.86c0 5.64-3 8.64-8.64 8.64h-6.72c-5.58 0-8.64-3-8.64-8.64v-6.3c0-.66.36-.96.96-.96h6.24c.66 0 .96.3.96.96v4.62c0 1.62.9 2.4 2.4 2.4h2.88c1.56 0 2.4-.78 2.4-2.4V29.7l-14.22-4.68c-1.08-.36-1.62-1.08-1.62-2.22V8.64C250.2 3 253.26 0 258.84 0Z" fill="#2974D4"/>
    <path d="M0 47.04V.96C0 .36.36 0 .96 0h14.4C21 0 24 3 24 8.64v14.64c0 5.58-3 8.64-8.64 8.64h-7.2v15.12c0 .6-.3.96-.96.96H.96c-.6 0-.96-.36-.96-.96ZM8.16 24h5.28c1.62 0 2.4-.9 2.4-2.4V10.32c0-1.56-.78-2.4-2.4-2.4H8.16V24ZM54.06 8.64v14.64c0 4.02-1.5 6.66-4.38 7.92l4.14 15.72c.18.72-.18 1.08-.84 1.08h-6.24c-.6 0-.9-.3-1.02-.84L41.7 31.92h-4.14v15.12c0 .6-.36.96-.96.96h-6.24c-.6 0-.96-.36-.96-.96V.96c0-.6.36-.96.96-.96h15.06c5.64 0 8.64 3 8.64 8.64ZM37.56 24h5.94c1.56 0 2.4-.84 2.4-2.4V10.32c0-1.56-.84-2.4-2.4-2.4h-5.94V24ZM61.02 0h6.24c.6 0 .96.36.96.96v46.08c0 .6-.36.96-.96.96h-6.24c-.66 0-.96-.36-.96-.96V.96c0-.6.3-.96.96-.96ZM99.3 0h7.92c.78 0 1.2.42 1.2 1.2v45.6c0 .78-.42 1.2-1.2 1.2h-5.58c-.78 0-1.2-.42-1.2-1.2v-27h-.42l-5.94 27.12c-.18.72-.6 1.08-1.32 1.08h-2.94c-.72 0-1.14-.36-1.32-1.08L82.56 19.8h-.42v27c0 .78-.42 1.2-1.2 1.2h-5.52c-.78 0-1.2-.42-1.2-1.2V1.2c0-.78.42-1.2 1.2-1.2h7.92c.72 0 1.14.36 1.32 1.08l6.66 29.88 6.66-29.88C98.16.36 98.58 0 99.3 0ZM138.36.96v6c0 .6-.24 1.02-.96 1.02h-15v12h11.46c.6 0 .96.36.96 1.02v5.94c0 .66-.36 1.02-.96 1.02H122.4v12.12h15c.72 0 .96.3.96.96v6c0 .6-.24.96-.96.96h-22.08c-.54 0-.9-.36-.9-.96V.96c0-.6.36-.96.9-.96h22.08c.72 0 .96.36.96.96Z" fill="#444"/>
  </g>
</svg>