<svg fill="none" xmlns="http://www.w3.org/2000/svg" viewBox="0 0 916 234">
  <path d="M278.733 174.984v-113.3c0-1.475.885-2.36 2.36-2.36h35.406c13.868 0 21.244 7.376 21.244 21.243v35.997c0 13.72-7.376 21.244-21.244 21.244h-17.703v37.176c0 1.476-.737 2.361-2.36 2.361h-15.343c-1.475 0-2.36-.885-2.36-2.361Zm20.063-56.65h12.983c3.983 0 5.901-2.213 5.901-5.901V84.698c0-3.835-1.918-5.9-5.901-5.9h-12.983v39.536Z" fill="url(#a)"/>
  <path d="M411.689 80.567v35.997c0 9.884-3.688 16.375-10.77 19.473l10.18 38.652c.442 1.771-.443 2.656-2.066 2.656H393.69c-1.475 0-2.212-.738-2.508-2.065l-9.884-37.472h-10.179v37.176c0 1.476-.885 2.361-2.361 2.361h-15.342c-1.476 0-2.361-.885-2.361-2.361v-113.3c0-1.475.885-2.36 2.361-2.36h37.029c13.867 0 21.244 7.376 21.244 21.243Zm-40.57 37.767h14.605c3.836 0 5.901-2.065 5.901-5.901V84.698c0-3.835-2.065-5.9-5.901-5.9h-14.605v39.536Z" fill="url(#b)"/>
  <path d="M428.764 59.324h15.342c1.476 0 2.361.885 2.361 2.36v113.3c0 1.476-.885 2.361-2.361 2.361h-15.342c-1.623 0-2.361-.885-2.361-2.361v-113.3c0-1.475.738-2.36 2.361-2.36Z" fill="url(#c)"/>
  <path d="M522.934 59.324h19.473c1.918 0 2.951 1.032 2.951 2.95v112.12c0 1.918-1.033 2.951-2.951 2.951h-13.719c-1.918 0-2.951-1.033-2.951-2.951v-66.387h-1.033l-14.605 66.682c-.442 1.771-1.475 2.656-3.245 2.656h-7.229c-1.77 0-2.803-.885-3.246-2.656l-14.605-66.682h-1.032v66.387c0 1.918-1.033 2.951-2.951 2.951h-13.572c-1.918 0-2.951-1.033-2.951-2.951V62.274c0-1.918 1.033-2.95 2.951-2.95h19.473c1.77 0 2.803.885 3.246 2.655l16.375 73.468 16.376-73.468c.442-1.77 1.475-2.655 3.245-2.655Z" fill="url(#d)"/>
  <path d="M618.962 61.684v14.753c0 1.475-.59 2.508-2.36 2.508H579.72v29.505h28.178c1.475 0 2.36.885 2.36 2.508v14.605c0 1.623-.885 2.508-2.36 2.508H579.72v29.8h36.882c1.77 0 2.36.738 2.36 2.361v14.752c0 1.476-.59 2.361-2.36 2.361h-54.29c-1.328 0-2.213-.885-2.213-2.361v-113.3c0-1.475.885-2.36 2.213-2.36h54.29c1.77 0 2.36.885 2.36 2.36Z" fill="url(#e)"/>
  <path d="M692.729 61.684v14.753c0 1.475-.885 2.36-2.361 2.36h-36.586v29.653h27.735c1.475 0 2.36.885 2.36 2.36v14.753c0 1.623-.885 2.36-2.36 2.36h-27.735v47.061c0 1.476-.885 2.361-2.361 2.361h-15.342c-1.623 0-2.361-.885-2.361-2.361v-113.3c0-1.475.738-2.36 2.361-2.36h54.289c1.476 0 2.361.885 2.361 2.36Z" fill="url(#f)"/>
  <path d="M726.104 157.871h35.112c1.623 0 2.36.886 2.36 2.361v14.752c0 1.623-.737 2.361-2.36 2.361h-52.815c-1.475 0-2.36-.738-2.36-2.361v-113.3c0-1.475.885-2.36 2.36-2.36h15.343c1.623 0 2.36.885 2.36 2.36v96.187Z" fill="url(#g)"/>
  <path d="M834.345 61.684v14.753c0 1.475-.59 2.508-2.36 2.508h-36.882v29.505h28.178c1.475 0 2.36.885 2.36 2.508v14.605c0 1.623-.885 2.508-2.36 2.508h-28.178v29.8h36.882c1.77 0 2.36.738 2.36 2.361v14.752c0 1.476-.59 2.361-2.36 2.361h-54.29c-1.328 0-2.213-.885-2.213-2.361v-113.3c0-1.475.885-2.36 2.213-2.36h54.29c1.77 0 2.36.885 2.36 2.36Z" fill="url(#h)"/>
  <path d="m891.442 117.154 23.456 56.65c.886 2.066.148 3.541-2.213 3.541H897.49c-1.623 0-2.803-.59-3.393-2.065l-14.163-35.702-14.162 35.702c-.59 1.475-1.77 2.065-3.393 2.065h-15.195c-2.361 0-3.098-1.475-2.213-3.541l23.309-56.65-22.424-54.29c-.885-2.065-.148-3.54 2.213-3.54h14.752c1.623 0 2.803.59 3.393 2.065l13.72 34.964 13.72-34.964c.591-1.475 1.771-2.065 3.394-2.065H911.8c2.361 0 3.098 1.475 2.213 3.54l-22.571 54.29Z" fill="url(#i)"/>
  <path fill-rule="evenodd" clip-rule="evenodd" d="M233.936 117.39 117.338.792.74 117.39l116.598 116.598L233.936 117.39ZM140.15 75.493l21.29-2.026-14.194-14.189h-14.193l7.097 16.215Zm-36.498-16.215-8.078 19.177-36.531-2.961 6.083 25.336 43.594 16.216h6.084V59.278h-11.152Zm-15.207 60.808 9.124-2.027-7.097 10.135v31.417l-24.331-20.269v-34.458l11.152 4.054 11.152 11.148Zm56.774 0-9.125-2.027 7.097 10.135v31.417l24.332-20.269v-34.458l-11.152 4.054-11.152 11.148Zm-43.718-2.176-8.087 12.186v45.698l6.066 9.139 7.076 7.109h20.218l7.076-7.109 6.065-9.139v-45.698l-8.087-12.186-5.054 3.046h-20.218l-5.055-3.046Zm41.69 60.957 13.18-13.175v-13.175l-13.18 11.148v15.202Zm-65.898-13.175 13.18 13.175v-15.202l-13.18-11.148v13.175Zm41.566-48.646V59.278h11.152l8.078 19.179 37.544-2.963-6.083 25.336-43.594 16.216h-7.097Zm-46.635-43.58 21.29 2.027 7.097-16.215H86.417L72.223 73.466Z" fill="url(#j)"/>
  <defs>
    <linearGradient id="a" x1="458" y1="-127.142" x2="741.882" y2="329.744" gradientUnits="userSpaceOnUse">
      <stop stop-color="#00E08F"/>
      <stop offset="1" stop-color="#00A3FF"/>
    </linearGradient>
    <linearGradient id="b" x1="458" y1="-127.142" x2="741.882" y2="329.744" gradientUnits="userSpaceOnUse">
      <stop stop-color="#00E08F"/>
      <stop offset="1" stop-color="#00A3FF"/>
    </linearGradient>
    <linearGradient id="c" x1="458" y1="-127.142" x2="741.882" y2="329.744" gradientUnits="userSpaceOnUse">
      <stop stop-color="#00E08F"/>
      <stop offset="1" stop-color="#00A3FF"/>
    </linearGradient>
    <linearGradient id="d" x1="458" y1="-127.142" x2="741.882" y2="329.744" gradientUnits="userSpaceOnUse">
      <stop stop-color="#00E08F"/>
      <stop offset="1" stop-color="#00A3FF"/>
    </linearGradient>
    <linearGradient id="e" x1="458" y1="-127.142" x2="741.882" y2="329.744" gradientUnits="userSpaceOnUse">
      <stop stop-color="#00E08F"/>
      <stop offset="1" stop-color="#00A3FF"/>
    </linearGradient>
    <linearGradient id="f" x1="458" y1="-127.142" x2="741.882" y2="329.744" gradientUnits="userSpaceOnUse">
      <stop stop-color="#00E08F"/>
      <stop offset="1" stop-color="#00A3FF"/>
    </linearGradient>
    <linearGradient id="g" x1="458" y1="-127.142" x2="741.882" y2="329.744" gradientUnits="userSpaceOnUse">
      <stop stop-color="#00E08F"/>
      <stop offset="1" stop-color="#00A3FF"/>
    </linearGradient>
    <linearGradient id="h" x1="458" y1="-127.142" x2="741.882" y2="329.744" gradientUnits="userSpaceOnUse">
      <stop stop-color="#00E08F"/>
      <stop offset="1" stop-color="#00A3FF"/>
    </linearGradient>
    <linearGradient id="i" x1="458" y1="-127.142" x2="741.882" y2="329.744" gradientUnits="userSpaceOnUse">
      <stop stop-color="#00E08F"/>
      <stop offset="1" stop-color="#00A3FF"/>
    </linearGradient>
    <linearGradient id="j" x1="458" y1="-127.142" x2="741.882" y2="329.744" gradientUnits="userSpaceOnUse">
      <stop stop-color="#00E08F"/>
      <stop offset="1" stop-color="#00A3FF"/>
    </linearGradient>
  </defs>
</svg>