<svg xmlns="http://www.w3.org/2000/svg" xml:space="preserve" viewBox="0 0 122.879 103.148">
  <path d="M55.36 52.179a2.035 2.035 0 0 1-2.785-.722v-.001a2.03 2.03 0 0 1-.215-1.542c.13-.503.453-.958.936-1.242l36.073-21.556 3.195-9.961a2.039 2.039 0 0 1 .922-1.146L111.88 5.385h.001a2.034 2.034 0 0 1 1.548-.205c.505.135.958.463 1.24.951v.001a2.021 2.021 0 0 1 .199 1.569L113.233 16l8.298 2.988c.529.19.933.578 1.154 1.049a2.032 2.032 0 0 1-.613 2.491l.011.017-.222.128-18.396 10.621a2.04 2.04 0 0 1-1.704.157l-10.344-2.82-36.055 21.547-.002.001zm9.56-50.411a51.606 51.606 0 0 1 12.952 5.44 51.28 51.28 0 0 1 10.977 8.732.38.38 0 0 1-.046.567l-2.872 2.172a.381.381 0 0 1-.517-.054A46.972 46.972 0 0 0 63.797 5.957a47.095 47.095 0 0 0-18.37-1.219 47.305 47.305 0 0 0-17.466 5.939 47.313 47.313 0 0 0-13.877 12.157 47.06 47.06 0 0 0-8.128 16.518 47.091 47.091 0 0 0-1.219 18.369 47.301 47.301 0 0 0 5.94 17.466l.01.02a47.31 47.31 0 0 0 12.146 13.858 47.053 47.053 0 0 0 16.516 8.129 47.085 47.085 0 0 0 18.368 1.219 47.307 47.307 0 0 0 17.466-5.94 47.313 47.313 0 0 0 13.878-12.156A47.056 47.056 0 0 0 97.189 63.8a47.224 47.224 0 0 0 1.621-12.309 46.881 46.881 0 0 0-1.653-12.274.383.383 0 0 1 .229-.456l3.29-1.458a.382.382 0 0 1 .525.261 51.272 51.272 0 0 1 1.944 13.646c.03 4.527-.54 9.131-1.767 13.71a51.407 51.407 0 0 1-8.876 18.034 51.659 51.659 0 0 1-15.149 13.274l-.021.012a51.649 51.649 0 0 1-19.049 6.471 51.387 51.387 0 0 1-20.055-1.329 51.4 51.4 0 0 1-18.033-8.875 51.676 51.676 0 0 1-13.273-15.15A51.676 51.676 0 0 1 .438 58.284a51.406 51.406 0 0 1 1.33-20.055 51.405 51.405 0 0 1 8.875-18.034A51.645 51.645 0 0 1 25.792 6.921 51.664 51.664 0 0 1 44.863.438a51.418 51.418 0 0 1 20.057 1.33zm-9.092 34.607a15.936 15.936 0 0 1 3.738 1.583.381.381 0 0 1 .037.632v.001l-3.167 2.395a.382.382 0 0 1-.396.039 11.135 11.135 0 0 0-1.378-.483l-.111-.025-.014-.004a11.438 11.438 0 0 0-4.454-.296 11.478 11.478 0 0 0-4.234 1.44 11.422 11.422 0 0 0-5.337 6.953 11.442 11.442 0 0 0-.296 4.455 11.486 11.486 0 0 0 4.387 7.599c1.159.89 2.508 1.57 4.005 1.972a.338.338 0 0 1 .056.02c1.479.388 2.968.467 4.396.278a11.497 11.497 0 0 0 4.236-1.442 11.507 11.507 0 0 0 3.368-2.947l-.001-.001a11.413 11.413 0 0 0 1.973-3.999l.066-.263a.38.38 0 0 1 .226-.259l3.857-1.709a.384.384 0 0 1 .504.195.382.382 0 0 1 .03.187 15.856 15.856 0 0 1-.5 2.959l-.001.002h.001l-.003.01-.005.017a15.733 15.733 0 0 1-7.346 9.565l-.021.012a15.818 15.818 0 0 1-5.814 1.971c-1.979.26-4.04.147-6.085-.393a.384.384 0 0 1-.059-.011h-.001a15.731 15.731 0 0 1-9.586-7.359 15.743 15.743 0 0 1-1.579-11.981 15.731 15.731 0 0 1 7.358-9.586l.021-.012a15.82 15.82 0 0 1 5.819-1.973 15.733 15.733 0 0 1 6.14.406l.017.005.07.021c.03.007.058.016.083.026zm4.517-17.538a33.688 33.688 0 0 1 14.247 7.855.382.382 0 0 1-.029.583l-2.902 2.195a.381.381 0 0 1-.502-.037 29.37 29.37 0 0 0-5.574-3.889 29.614 29.614 0 0 0-6.361-2.518 29.47 29.47 0 0 0-11.497-.763 29.606 29.606 0 0 0-10.929 3.716l-.02.01a29.614 29.614 0 0 0-8.665 7.597 29.444 29.444 0 0 0-5.086 10.337 29.48 29.48 0 0 0-.764 11.495 29.615 29.615 0 0 0 3.716 10.931A29.456 29.456 0 0 0 43.923 80.12a29.438 29.438 0 0 0 11.494.764 29.628 29.628 0 0 0 10.932-3.717h-.001a29.633 29.633 0 0 0 8.685-7.607 29.456 29.456 0 0 0 5.086-10.336 29.36 29.36 0 0 0 .569-12.751.383.383 0 0 1 .233-.42l3.347-1.483a.382.382 0 0 1 .532.3c.51 2.518.737 5.113.654 7.741a33.96 33.96 0 0 1-1.145 7.735 33.79 33.79 0 0 1-5.834 11.853 33.951 33.951 0 0 1-9.959 8.724l.001.001a33.96 33.96 0 0 1-12.536 4.262c-4.286.564-8.75.314-13.181-.873a33.806 33.806 0 0 1-11.854-5.835 33.952 33.952 0 0 1-8.724-9.957l-.012-.022a33.938 33.938 0 0 1-4.25-12.514 33.782 33.782 0 0 1 .874-13.182 33.782 33.782 0 0 1 15.792-20.578l.021-.012a33.792 33.792 0 0 1 25.698-3.376zm48.554-1.907 1.137-5.766-13.832 7.986-2.525 7.875 8.477 2.311 13.861-8.003-5.808-2.093c-.47-.168-.849-.5-1.083-.914a2.02 2.02 0 0 1-.227-1.396z"/>
</svg>