<svg fill="none" xmlns="http://www.w3.org/2000/svg" viewBox="0 0 228 56">
  <path d="M44.891 53.144h29.747a5.51 5.51 0 0 0 2.691-.7 5.303 5.303 0 0 0 1.97-1.91 5.1 5.1 0 0 0 .72-2.611 5.1 5.1 0 0 0-.723-2.61L59.32 11.75a5.302 5.302 0 0 0-1.97-1.911 5.51 5.51 0 0 0-2.69-.7 5.51 5.51 0 0 0-2.691.7 5.303 5.303 0 0 0-1.97 1.91l-5.108 8.588-9.987-16.793a5.306 5.306 0 0 0-1.97-1.91 5.512 5.512 0 0 0-2.691-.7c-.945 0-1.873.242-2.691.7a5.306 5.306 0 0 0-1.97 1.91L.721 45.313A5.1 5.1 0 0 0 0 47.922c0 .916.248 1.816.72 2.61a5.303 5.303 0 0 0 1.97 1.911 5.51 5.51 0 0 0 2.691.7h18.672c7.399 0 12.855-3.152 16.609-9.302l9.114-15.311 4.882-8.194L69.31 44.95H49.776l-4.885 8.194ZM23.75 44.94l-13.03-.003 19.533-32.815 9.746 16.408-6.526 10.967c-2.493 3.99-5.325 5.443-9.723 5.443Z" fill="#00DC82"/>
  <path d="M92.27 52.01V8.547h9.935l12.791 21.049c1.862 3.063 3.622 6.416 5.277 10.058-.414-4.015-.62-7.802-.62-11.362V8.547h9.375V52.01h-9.996l-12.729-21.048c-1.904-3.063-3.684-6.395-5.34-9.997.414 3.974.621 7.741.621 11.3V52.01h-9.313ZM166.017 20.717v31.294h-8.693v-4.347c-.869 1.49-2.152 2.67-3.849 3.54-1.656.869-3.539 1.303-5.651 1.303-2.318 0-4.346-.517-6.084-1.552-1.739-1.076-3.105-2.546-4.098-4.408-.952-1.863-1.428-3.974-1.428-6.334V20.717h8.63v17.572c0 1.904.559 3.477 1.677 4.718 1.117 1.2 2.566 1.801 4.346 1.801 1.863 0 3.394-.662 4.595-1.987 1.241-1.324 1.862-2.98 1.862-4.967V20.717h8.693ZM190.054 35.743l11.238 16.267h-9.189l-6.706-9.623-6.768 9.623h-9.251l11.3-16.33-10.493-14.963h9.437l5.713 8.258 5.712-8.258h9.5l-10.493 15.026ZM209.008 11.466h8.631v9.251h8.382v7.203h-8.382v12.355c0 2.98 1.469 4.47 4.408 4.47h3.974v7.266h-5.154c-3.642 0-6.54-.994-8.692-2.98-2.111-1.988-3.167-4.782-3.167-8.383V27.919h-6.023v-7.202h6.023v-9.251Z" fill="#fff"/>
</svg>